<mxfile host="app.diagrams.net" agent="Mozilla/5.0 (Windows NT 10.0; Win64; x64) AppleWebKit/537.36 (KHTML, like Gecko) Chrome/127.0.0.0 Safari/537.36" version="24.7.6">
  <diagram name="Page-1" id="YmlfJMvfPYqUqZ3fXQKE">
    <mxGraphModel dx="794" dy="493" grid="1" gridSize="10" guides="1" tooltips="1" connect="1" arrows="1" fold="1" page="1" pageScale="1" pageWidth="827" pageHeight="1169" math="0" shadow="0">
      <root>
        <mxCell id="0" />
        <mxCell id="1" parent="0" />
        <mxCell id="Dtv7J37SrdrJ2K-23DkY-10" value="" style="group" parent="1" vertex="1" connectable="0">
          <mxGeometry x="14" y="250" width="800" height="580" as="geometry" />
        </mxCell>
        <mxCell id="Dtv7J37SrdrJ2K-23DkY-2" value="" style="rounded=0;whiteSpace=wrap;html=1;" parent="Dtv7J37SrdrJ2K-23DkY-10" vertex="1">
          <mxGeometry width="800" height="550" as="geometry" />
        </mxCell>
        <mxCell id="Dtv7J37SrdrJ2K-23DkY-33" value="" style="group" parent="Dtv7J37SrdrJ2K-23DkY-10" vertex="1" connectable="0">
          <mxGeometry x="46" y="60" width="615" height="340" as="geometry" />
        </mxCell>
        <mxCell id="Dtv7J37SrdrJ2K-23DkY-24" value="" style="group" parent="Dtv7J37SrdrJ2K-23DkY-33" vertex="1" connectable="0">
          <mxGeometry y="30" width="615" height="310" as="geometry" />
        </mxCell>
        <mxCell id="Dtv7J37SrdrJ2K-23DkY-23" value="" style="rounded=0;whiteSpace=wrap;html=1;fillColor=#fff2cc;strokeColor=#d6b656;" parent="Dtv7J37SrdrJ2K-23DkY-24" vertex="1">
          <mxGeometry width="615" height="310" as="geometry" />
        </mxCell>
        <mxCell id="Dtv7J37SrdrJ2K-23DkY-13" value="" style="group" parent="Dtv7J37SrdrJ2K-23DkY-24" vertex="1" connectable="0">
          <mxGeometry x="16.9125" y="160" width="181.425" height="90" as="geometry" />
        </mxCell>
        <mxCell id="Dtv7J37SrdrJ2K-23DkY-12" value="&lt;font style=&quot;font-size: 19px;&quot;&gt;PitchTrack&amp;nbsp;&lt;/font&gt;&lt;div&gt;&lt;font style=&quot;font-size: 19px;&quot;&gt;Client&lt;/font&gt;&lt;/div&gt;" style="text;html=1;align=center;verticalAlign=middle;whiteSpace=wrap;rounded=0;fillColor=#dae8fc;strokeColor=#6c8ebf;movable=1;resizable=1;rotatable=1;deletable=1;editable=1;locked=0;connectable=1;" parent="Dtv7J37SrdrJ2K-23DkY-13" vertex="1">
          <mxGeometry width="181.425" height="90" as="geometry" />
        </mxCell>
        <mxCell id="Dtv7J37SrdrJ2K-23DkY-6" value="" style="shape=image;verticalLabelPosition=bottom;labelBackgroundColor=default;verticalAlign=top;aspect=fixed;imageAspect=0;image=https://w7.pngwing.com/pngs/627/244/png-transparent-docker-logo-logos-logos-and-brands-icon.png;" parent="Dtv7J37SrdrJ2K-23DkY-13" vertex="1">
          <mxGeometry width="27.01432360742706" height="27.01432360742706" as="geometry" />
        </mxCell>
        <mxCell id="Dtv7J37SrdrJ2K-23DkY-14" value="" style="group" parent="Dtv7J37SrdrJ2K-23DkY-24" vertex="1" connectable="0">
          <mxGeometry x="235.75" y="160" width="174.25" height="90" as="geometry" />
        </mxCell>
        <mxCell id="Dtv7J37SrdrJ2K-23DkY-15" value="&lt;font style=&quot;font-size: 19px;&quot;&gt;PitchTrack&amp;nbsp;&lt;/font&gt;&lt;div&gt;&lt;span style=&quot;font-size: 19px;&quot;&gt;Server&lt;/span&gt;&lt;/div&gt;" style="text;html=1;align=center;verticalAlign=middle;whiteSpace=wrap;rounded=0;fillColor=#dae8fc;strokeColor=#6c8ebf;movable=1;resizable=1;rotatable=1;deletable=1;editable=1;locked=0;connectable=1;" parent="Dtv7J37SrdrJ2K-23DkY-14" vertex="1">
          <mxGeometry width="174.25" height="90" as="geometry" />
        </mxCell>
        <mxCell id="Dtv7J37SrdrJ2K-23DkY-16" value="" style="shape=image;verticalLabelPosition=bottom;labelBackgroundColor=default;verticalAlign=top;aspect=fixed;imageAspect=0;image=https://w7.pngwing.com/pngs/627/244/png-transparent-docker-logo-logos-logos-and-brands-icon.png;" parent="Dtv7J37SrdrJ2K-23DkY-14" vertex="1">
          <mxGeometry width="23.75172413793104" height="23.75172413793104" as="geometry" />
        </mxCell>
        <mxCell id="Dtv7J37SrdrJ2K-23DkY-17" value="" style="group" parent="Dtv7J37SrdrJ2K-23DkY-24" vertex="1" connectable="0">
          <mxGeometry x="451" y="160" width="133.25" height="90" as="geometry" />
        </mxCell>
        <mxCell id="Dtv7J37SrdrJ2K-23DkY-18" value="&lt;font style=&quot;font-size: 19px;&quot;&gt;Mongo&lt;/font&gt;&lt;div&gt;&lt;span style=&quot;font-size: 19px;&quot;&gt;DB&lt;/span&gt;&lt;/div&gt;" style="text;html=1;align=center;verticalAlign=middle;whiteSpace=wrap;rounded=0;fillColor=#dae8fc;strokeColor=#6c8ebf;movable=1;resizable=1;rotatable=1;deletable=1;editable=1;locked=0;connectable=1;" parent="Dtv7J37SrdrJ2K-23DkY-17" vertex="1">
          <mxGeometry width="133.25" height="90" as="geometry" />
        </mxCell>
        <mxCell id="Dtv7J37SrdrJ2K-23DkY-19" value="" style="shape=image;verticalLabelPosition=bottom;labelBackgroundColor=default;verticalAlign=top;aspect=fixed;imageAspect=0;image=https://w7.pngwing.com/pngs/627/244/png-transparent-docker-logo-logos-logos-and-brands-icon.png;" parent="Dtv7J37SrdrJ2K-23DkY-17" vertex="1">
          <mxGeometry width="22.055172413793105" height="22.055172413793105" as="geometry" />
        </mxCell>
        <mxCell id="Dtv7J37SrdrJ2K-23DkY-29" style="edgeStyle=orthogonalEdgeStyle;rounded=0;orthogonalLoop=1;jettySize=auto;html=1;" parent="Dtv7J37SrdrJ2K-23DkY-24" source="Dtv7J37SrdrJ2K-23DkY-21" target="Dtv7J37SrdrJ2K-23DkY-12" edge="1">
          <mxGeometry relative="1" as="geometry" />
        </mxCell>
        <mxCell id="Dtv7J37SrdrJ2K-23DkY-30" style="edgeStyle=orthogonalEdgeStyle;rounded=0;orthogonalLoop=1;jettySize=auto;html=1;" parent="Dtv7J37SrdrJ2K-23DkY-24" source="Dtv7J37SrdrJ2K-23DkY-21" target="Dtv7J37SrdrJ2K-23DkY-15" edge="1">
          <mxGeometry relative="1" as="geometry" />
        </mxCell>
        <mxCell id="Dtv7J37SrdrJ2K-23DkY-40" style="edgeStyle=orthogonalEdgeStyle;rounded=0;orthogonalLoop=1;jettySize=auto;html=1;entryX=0;entryY=0.5;entryDx=0;entryDy=0;" parent="Dtv7J37SrdrJ2K-23DkY-24" source="Dtv7J37SrdrJ2K-23DkY-15" target="Dtv7J37SrdrJ2K-23DkY-18" edge="1">
          <mxGeometry relative="1" as="geometry" />
        </mxCell>
        <mxCell id="Dtv7J37SrdrJ2K-23DkY-56" value="" style="group" parent="Dtv7J37SrdrJ2K-23DkY-24" vertex="1" connectable="0">
          <mxGeometry x="93" y="30" width="245.75" height="90" as="geometry" />
        </mxCell>
        <mxCell id="Dtv7J37SrdrJ2K-23DkY-21" value="&lt;font style=&quot;font-size: 19px;&quot;&gt;Nginx&lt;/font&gt;&lt;div&gt;&lt;span style=&quot;font-size: 19px;&quot;&gt;(Reverse Proxy)&lt;/span&gt;&lt;/div&gt;" style="text;html=1;align=center;verticalAlign=middle;whiteSpace=wrap;rounded=0;fillColor=#dae8fc;strokeColor=#6c8ebf;movable=1;resizable=1;rotatable=1;deletable=1;editable=1;locked=0;connectable=1;" parent="Dtv7J37SrdrJ2K-23DkY-56" vertex="1">
          <mxGeometry width="245.75" height="90" as="geometry" />
        </mxCell>
        <mxCell id="Dtv7J37SrdrJ2K-23DkY-22" value="" style="shape=image;verticalLabelPosition=bottom;labelBackgroundColor=default;verticalAlign=top;aspect=fixed;imageAspect=0;image=https://w7.pngwing.com/pngs/627/244/png-transparent-docker-logo-logos-logos-and-brands-icon.png;" parent="Dtv7J37SrdrJ2K-23DkY-56" vertex="1">
          <mxGeometry x="1.170000000000016" y="1.0658141036401503e-14" width="25.44827586206897" height="25.44827586206897" as="geometry" />
        </mxCell>
        <mxCell id="Dtv7J37SrdrJ2K-23DkY-57" value="/api" style="text;html=1;align=center;verticalAlign=middle;whiteSpace=wrap;rounded=0;" parent="Dtv7J37SrdrJ2K-23DkY-24" vertex="1">
          <mxGeometry x="230" y="120" width="50" height="20" as="geometry" />
        </mxCell>
        <mxCell id="Dtv7J37SrdrJ2K-23DkY-58" value="/" style="text;html=1;align=center;verticalAlign=middle;whiteSpace=wrap;rounded=0;" parent="Dtv7J37SrdrJ2K-23DkY-24" vertex="1">
          <mxGeometry x="160" y="120" width="50" height="20" as="geometry" />
        </mxCell>
        <mxCell id="Dtv7J37SrdrJ2K-23DkY-59" value="Listen 80, 443" style="text;html=1;align=center;verticalAlign=middle;whiteSpace=wrap;rounded=0;" parent="Dtv7J37SrdrJ2K-23DkY-24" vertex="1">
          <mxGeometry x="120" width="90" height="30" as="geometry" />
        </mxCell>
        <mxCell id="Dtv7J37SrdrJ2K-23DkY-26" value="&lt;font style=&quot;font-size: 15px;&quot;&gt;docker network&lt;/font&gt;" style="text;html=1;align=center;verticalAlign=middle;whiteSpace=wrap;rounded=0;fillColor=#dae8fc;strokeColor=#6c8ebf;" parent="Dtv7J37SrdrJ2K-23DkY-33" vertex="1">
          <mxGeometry x="427.5000000000001" width="186.25000000000003" height="30" as="geometry" />
        </mxCell>
        <mxCell id="Dtv7J37SrdrJ2K-23DkY-54" style="edgeStyle=orthogonalEdgeStyle;rounded=0;orthogonalLoop=1;jettySize=auto;html=1;entryX=0.5;entryY=0;entryDx=0;entryDy=0;" parent="1" source="Dtv7J37SrdrJ2K-23DkY-43" target="Dtv7J37SrdrJ2K-23DkY-21" edge="1">
          <mxGeometry relative="1" as="geometry" />
        </mxCell>
        <mxCell id="Dtv7J37SrdrJ2K-23DkY-43" value="" style="verticalLabelPosition=bottom;sketch=0;html=1;fillColor=#282828;strokeColor=none;verticalAlign=top;pointerEvents=1;align=center;shape=mxgraph.cisco_safe.people_places_things_icons.icon2;" parent="1" vertex="1">
          <mxGeometry x="250.87" y="130" width="50" height="41" as="geometry" />
        </mxCell>
        <mxCell id="Dtv7J37SrdrJ2K-23DkY-45" value="&lt;font style=&quot;font-size: 23px;&quot;&gt;Senior Project (PitchTrack)&lt;/font&gt;" style="text;html=1;align=center;verticalAlign=middle;whiteSpace=wrap;rounded=0;" parent="1" vertex="1">
          <mxGeometry x="20" y="40" width="190" height="50" as="geometry" />
        </mxCell>
        <mxCell id="Dtv7J37SrdrJ2K-23DkY-3" value="&lt;font style=&quot;font-size: 15px;&quot;&gt;Azure VM (Ubuntu)&lt;/font&gt;" style="text;html=1;align=center;verticalAlign=middle;whiteSpace=wrap;rounded=0;fillColor=#dae8fc;strokeColor=#6c8ebf;" parent="1" vertex="1">
          <mxGeometry x="627.7500000000001" y="220" width="186.25000000000003" height="30" as="geometry" />
        </mxCell>
      </root>
    </mxGraphModel>
  </diagram>
</mxfile>
